<?xml version="1.0" encoding="utf-8"?>
<!-- Generator: Adobe Illustrator 16.0.0, SVG Export Plug-In . SVG Version: 6.00 Build 0)  -->
<!DOCTYPE svg PUBLIC "-//W3C//DTD SVG 1.1//EN" "http://www.w3.org/Graphics/SVG/1.1/DTD/svg11.dtd">
<svg version="1.1" id="Layer_1" xmlns="http://www.w3.org/2000/svg" xmlns:xlink="http://www.w3.org/1999/xlink" x="0px" y="0px"
	 width="1400px" height="980px" viewBox="0 0 1400 980" enable-background="new 0 0 1400 980" xml:space="preserve">
<g>
	<g>
		<g>
			<rect fill="#FFFFFF" width="1400" height="980"/>
		</g>
	</g>
	<g>
		<path fill="#89D36E" d="M373.7,451.7c0-66.4-53.9-120.3-120.3-120.3c-66.4,0-120.3,53.9-120.3,120.3
			c0,64.1,50.1,116.4,113.3,120.1l-1.7,0.2l45.9,52.3v-58.1l-0.1,0C338.8,550.5,373.7,505.2,373.7,451.7z"/>
	</g>
	<g>
		<path d="M234.8,592.9c-0.1,0-0.2,0-0.4,0C164,583.5,111,522.8,111,451.7c0-78.6,63.9-142.5,142.5-142.5c1.5,0,2.7,1.2,2.7,2.7
			c0,1.5-1.2,2.7-2.7,2.7c-75.5,0-137,61.5-137,137c0,68.4,51,126.7,118.7,135.8c1.5,0.2,2.5,1.6,2.3,3.1
			C237.3,591.9,236.1,592.9,234.8,592.9z"/>
	</g>
	<g>
		<path fill="#FF7F73" d="M1032.1,499.8c0-45.2,36.7-81.9,81.9-81.9s81.9,36.7,81.9,81.9c0,43.6-34.1,79.3-77.1,81.8l1.2,0.1
			l-31.2,35.6v-39.6l0,0C1055.9,567.1,1032.1,536.2,1032.1,499.8z"/>
	</g>
	<g>
		<path d="M1125.5,594.7c-1.3,0-2.5-1-2.7-2.3c-0.2-1.5,0.8-2.9,2.3-3.1l2-0.3c43.9-6.4,77-44.7,77-89.1c0-1.5,1.2-2.7,2.7-2.7
			c1.5,0,2.7,1.2,2.7,2.7c0,47.1-35.1,87.8-81.7,94.6l-2,0.3C1125.8,594.7,1125.6,594.7,1125.5,594.7z"/>
	</g>
	<g>
		<g>
			<path fill="#FFEBA2" d="M401.6,834.8c7.6,0,14.6-6.2,14.6-6.2l79.1-67.1H307.8l79.1,67.1C387,828.6,394,834.8,401.6,834.8z"/>
			<path d="M401.6,837.6c-8.5,0-16.1-6.6-16.4-6.9l-79.1-67.1c-0.9-0.7-1.2-2-0.8-3c0.4-1.1,1.4-1.8,2.6-1.8h187.4
				c1.1,0,2.2,0.7,2.6,1.8c0.4,1.1,0.1,2.3-0.8,3l-79.1,67.1C417.6,830.9,410.1,837.6,401.6,837.6z M315.3,764.2l73.5,62.3
				c0.1,0.1,6.4,5.6,12.8,5.6c5.4,0,11-4,12.8-5.5l73.5-62.4H315.3z"/>
		</g>
		<g>
			<g>
				<path fill="#FFEBA2" d="M495.5,761.5h-0.2l-79.1,67.1c0,0-7,6.2-14.6,6.2c-7.6,0-14.6-6.2-14.6-6.2l-79.1-67.1h-0.2v103.3h187.9
					V761.5z"/>
				<path d="M495.5,867.5H307.6c-1.5,0-2.7-1.2-2.7-2.7V761.5c0-1.5,1.2-2.7,2.7-2.7c0.6,0,1.5,0.2,2,0.6l79.1,67.1
					c0.1,0.1,6.4,5.6,12.8,5.6c5.4,0,11-4,12.8-5.5l79.2-67.2c1.6-1.4,4.7-0.1,4.7,2.1v103.3C498.2,866.3,497,867.5,495.5,867.5z
					 M310.3,862h182.4v-94.8l-74.9,63.5c-0.3,0.2-7.8,6.9-16.4,6.9c-8.5,0-16.1-6.6-16.4-6.9l-74.8-63.5V862z"/>
			</g>
			<g>
				<rect x="307.6" y="864.8" fill="#FFEBA2" width="187.9" height="16.9"/>
				<path d="M495.5,884.4H307.6c-1.5,0-2.7-1.2-2.7-2.7v-16.9c0-1.5,1.2-2.7,2.7-2.7h187.9c1.5,0,2.7,1.2,2.7,2.7v16.9
					C498.2,883.2,497,884.4,495.5,884.4z M310.3,879h182.4v-11.5H310.3V879z"/>
			</g>
		</g>
	</g>
	<g>
		<g>
			<path d="M1103.5,357.2c-15.1,0-27.4-12.3-27.4-27.4c0-15.1,12.3-27.4,27.4-27.4s27.4,12.3,27.4,27.4
				C1130.9,344.9,1118.6,357.2,1103.5,357.2z M1103.5,307.8c-12.1,0-22,9.9-22,22c0,12.1,9.9,22,22,22s22-9.9,22-22
				C1125.4,317.6,1115.6,307.8,1103.5,307.8z"/>
		</g>
		<g>
			<path d="M1151.4,332.5c-1.5,0-2.7-1.2-2.7-2.7c0-24.9-20.3-45.2-45.2-45.2c-1.5,0-2.7-1.2-2.7-2.7c0-1.5,1.2-2.7,2.7-2.7
				c27.9,0,50.7,22.7,50.7,50.7C1154.1,331.3,1152.9,332.5,1151.4,332.5z"/>
		</g>
		<g>
			<path d="M1175.2,332.5c-1.5,0-2.7-1.2-2.7-2.7c0-38.1-31-69-69-69c-1.5,0-2.7-1.2-2.7-2.7c0-1.5,1.2-2.7,2.7-2.7
				c41.1,0,74.5,33.4,74.5,74.5C1178,331.3,1176.7,332.5,1175.2,332.5z"/>
		</g>
	</g>
	<g>
		<g>
			<path fill="#FFFFFF" d="M1114,537.8c-20.9,0-38-17-38-38c0-20.9,17-38,38-38c20.9,0,38,17,38,38
				C1151.9,520.8,1134.9,537.8,1114,537.8z M1114,467.3c-17.9,0-32.5,14.6-32.5,32.5c0,17.9,14.6,32.5,32.5,32.5
				c17.9,0,32.5-14.6,32.5-32.5C1146.5,481.9,1131.9,467.3,1114,467.3z"/>
		</g>
		<g>
			<path fill="#FFFFFF" d="M1114,559c-32.6,0-59.1-26.5-59.1-59.1c0-32.6,26.5-59.1,59.1-59.1c32.6,0,59.1,26.5,59.1,59.1V527
				c0,6.9-5.6,12.6-12.6,12.6h-1.5c-6.9,0-12.6-5.6-12.6-12.6v-27.1c0-1.5,1.2-2.7,2.7-2.7s2.7,1.2,2.7,2.7V527
				c0,3.9,3.2,7.1,7.1,7.1h1.5c3.9,0,7.1-3.2,7.1-7.1v-27.1c0-29.6-24.1-53.7-53.7-53.7c-29.6,0-53.7,24.1-53.7,53.7
				c0,29.6,24.1,53.7,53.7,53.7c1.5,0,2.7,1.2,2.7,2.7S1115.5,559,1114,559z"/>
		</g>
	</g>
	<g>
		<g>
			<path fill="#E6E7E8" d="M960.6,292.2c0-16.3-13.3-29.6-29.6-29.6H469c-16.3,0-29.6,13.2-29.6,29.6v14h521.1V292.2z"/>
			<path d="M960.6,308.9H439.4c-1.5,0-2.7-1.2-2.7-2.7v-14c0-17.8,14.5-32.3,32.3-32.3h462c17.8,0,32.3,14.5,32.3,32.3v14
				C963.3,307.7,962.1,308.9,960.6,308.9z M442.2,303.5h515.7v-11.2c0-14.8-12.1-26.9-26.9-26.9H469c-14.8,0-26.9,12-26.9,26.9
				V303.5z"/>
		</g>
		<g>
			<rect x="439.4" y="306.2" fill="#61B3FF" width="521.1" height="296.7"/>
			<path d="M960.6,605.7H439.4c-1.5,0-2.7-1.2-2.7-2.7V306.2c0-1.5,1.2-2.7,2.7-2.7h521.1c1.5,0,2.7,1.2,2.7,2.7V603
				C963.3,604.5,962.1,605.7,960.6,605.7z M442.2,600.2h515.7V308.9H442.2V600.2z"/>
		</g>
		<g>
			<g>
				<rect x="367.9" y="626" fill="#E6E7E8" width="664.2" height="34.8"/>
				<path d="M1032.1,663.5H367.9c-1.5,0-2.7-1.2-2.7-2.7V626c0-1.5,1.2-2.7,2.7-2.7h664.2c1.5,0,2.7,1.2,2.7,2.7v34.8
					C1034.8,662.3,1033.6,663.5,1032.1,663.5z M370.6,658.1h658.7v-29.4H370.6V658.1z"/>
			</g>
			<g>
				<polygon fill="#BCBEC0" points="367.9,660.8 434.3,683.5 965.7,683.5 1032.1,660.8 				"/>
				<path d="M965.7,686.2H434.3c-0.3,0-0.6-0.1-0.9-0.1L367,663.4c-1.3-0.4-2-1.7-1.8-3c0.2-1.3,1.4-2.3,2.7-2.3h664.2
					c1.3,0,2.5,1,2.7,2.3s-0.5,2.6-1.8,3l-66.4,22.7C966.3,686.2,966,686.2,965.7,686.2z M434.8,680.8h530.4l50.4-17.2H384.3
					L434.8,680.8z"/>
			</g>
		</g>
		<g>
			<path fill="#FFEBA2" d="M797.8,454.6c0,54-43.8,97.8-97.8,97.8c-54,0-97.8-43.8-97.8-97.8c0-54,43.8-97.8,97.8-97.8
				C754,356.8,797.8,400.6,797.8,454.6z"/>
			<path d="M700,555.1c-55.4,0-100.5-45.1-100.5-100.5S644.6,354,700,354s100.5,45.1,100.5,100.5S755.4,555.1,700,555.1z M700,359.5
				c-52.4,0-95.1,42.7-95.1,95.1s42.7,95.1,95.1,95.1s95.1-42.7,95.1-95.1S752.4,359.5,700,359.5z"/>
		</g>
		<g>
			<polygon fill="#FFFFFF" points="672.6,410.4 749.2,454.6 672.6,498.8 			"/>
			<path d="M672.6,501.5c-0.5,0-0.9-0.1-1.4-0.4c-0.8-0.5-1.4-1.4-1.4-2.4v-88.4c0-1,0.5-1.9,1.4-2.4c0.8-0.5,1.9-0.5,2.7,0
				l76.6,44.2c0.8,0.5,1.4,1.4,1.4,2.4s-0.5,1.9-1.4,2.4L674,501.2C673.5,501.4,673.1,501.5,672.6,501.5z M675.3,415.1v79l68.4-39.5
				L675.3,415.1z"/>
		</g>
		<g>
			<path d="M887.7,457.3h-89.9c-1.5,0-2.7-1.2-2.7-2.7c0-1.5,1.2-2.7,2.7-2.7h89.9c1.5,0,2.7,1.2,2.7,2.7
				C890.4,456.1,889.2,457.3,887.7,457.3z"/>
		</g>
		<g>
			<path d="M835.9,413.1h-48.7c-1.5,0-2.7-1.2-2.7-2.7c0-1.5,1.2-2.7,2.7-2.7h48.7c1.5,0,2.7,1.2,2.7,2.7
				C838.7,411.9,837.4,413.1,835.9,413.1z"/>
		</g>
		<g>
			<path d="M835.9,501.5h-48.7c-1.5,0-2.7-1.2-2.7-2.7c0-1.5,1.2-2.7,2.7-2.7h48.7c1.5,0,2.7,1.2,2.7,2.7
				C838.7,500.3,837.4,501.5,835.9,501.5z"/>
		</g>
		<g>
			<path d="M602,457.3h-89.9c-1.5,0-2.7-1.2-2.7-2.7c0-1.5,1.2-2.7,2.7-2.7H602c1.5,0,2.7,1.2,2.7,2.7
				C604.7,456.1,603.5,457.3,602,457.3z"/>
		</g>
		<g>
			<path d="M612.6,413.1h-48.7c-1.5,0-2.7-1.2-2.7-2.7c0-1.5,1.2-2.7,2.7-2.7h48.7c1.5,0,2.7,1.2,2.7,2.7
				C615.3,411.9,614.1,413.1,612.6,413.1z"/>
		</g>
		<g>
			<path d="M612.6,501.5h-48.7c-1.5,0-2.7-1.2-2.7-2.7c0-1.5,1.2-2.7,2.7-2.7h48.7c1.5,0,2.7,1.2,2.7,2.7
				C615.3,500.3,614.1,501.5,612.6,501.5z"/>
		</g>
	</g>
	<g>
		<path d="M995.8,347.3H928c-1.5,0-2.7-1.2-2.7-2.7c0-1.5,1.2-2.7,2.7-2.7h67.8c1.5,0,2.7,1.2,2.7,2.7
			C998.5,346.1,997.3,347.3,995.8,347.3z"/>
	</g>
	<g>
		<path d="M976.7,370.1H928c-1.5,0-2.7-1.2-2.7-2.7c0-1.5,1.2-2.7,2.7-2.7h48.7c1.5,0,2.7,1.2,2.7,2.7
			C979.4,368.9,978.2,370.1,976.7,370.1z"/>
	</g>
	<g>
		<path d="M995.8,392.9h-19.1c-1.5,0-2.7-1.2-2.7-2.7c0-1.5,1.2-2.7,2.7-2.7h19.1c1.5,0,2.7,1.2,2.7,2.7
			C998.5,391.7,997.3,392.9,995.8,392.9z"/>
	</g>
	<g>
		<path d="M700,186.1c-28.6,0-51.9-23.3-51.9-51.9c0-28.6,23.3-51.9,51.9-51.9c28.6,0,51.9,23.3,51.9,51.9
			C751.9,162.9,728.6,186.1,700,186.1z M700,87.8c-25.6,0-46.4,20.8-46.4,46.4c0,25.6,20.8,46.4,46.4,46.4
			c25.6,0,46.4-20.8,46.4-46.4C746.4,108.6,725.6,87.8,700,87.8z"/>
	</g>
	<g>
		<path d="M700,160.3c-14.4,0-26.1-11.7-26.1-26.1c0-14.4,11.7-26.1,26.1-26.1c14.4,0,26.1,11.7,26.1,26.1
			C726,148.6,714.4,160.3,700,160.3z M700,113.6c-11.4,0-20.6,9.2-20.6,20.6c0,11.4,9.2,20.6,20.6,20.6c11.4,0,20.6-9.2,20.6-20.6
			C720.6,122.9,711.3,113.6,700,113.6z"/>
	</g>
	<g>
		<path d="M1021.7,235.3c-28.6,0-51.9-23.3-51.9-51.9s23.3-51.9,51.9-51.9s51.9,23.3,51.9,51.9S1050.4,235.3,1021.7,235.3z
			 M1021.7,137c-25.6,0-46.4,20.8-46.4,46.4c0,25.6,20.8,46.4,46.4,46.4c25.6,0,46.5-20.8,46.5-46.4
			C1068.2,157.8,1047.4,137,1021.7,137z"/>
	</g>
	<g>
		<path d="M1021.7,209.5c-14.4,0-26.1-11.7-26.1-26.1c0-14.4,11.7-26.1,26.1-26.1c14.4,0,26.1,11.7,26.1,26.1
			C1047.8,197.8,1036.1,209.5,1021.7,209.5z M1021.7,162.8c-11.4,0-20.6,9.2-20.6,20.6s9.2,20.6,20.6,20.6
			c11.4,0,20.6-9.2,20.6-20.6S1033.1,162.8,1021.7,162.8z"/>
	</g>
	<g>
		<path d="M378.2,235.3c-28.6,0-51.9-23.3-51.9-51.9s23.3-51.9,51.9-51.9s51.9,23.3,51.9,51.9S406.9,235.3,378.2,235.3z M378.2,137
			c-25.6,0-46.4,20.8-46.4,46.4c0,25.6,20.8,46.4,46.4,46.4c25.6,0,46.4-20.8,46.4-46.4C424.7,157.8,403.9,137,378.2,137z"/>
	</g>
	<g>
		<path d="M378.2,209.5c-14.4,0-26.1-11.7-26.1-26.1c0-14.4,11.7-26.1,26.1-26.1c14.4,0,26.1,11.7,26.1,26.1
			C404.3,197.8,392.6,209.5,378.2,209.5z M378.2,162.8c-11.4,0-20.6,9.2-20.6,20.6s9.2,20.6,20.6,20.6s20.6-9.2,20.6-20.6
			S389.6,162.8,378.2,162.8z"/>
	</g>
	<g>
		<g>
			<path d="M700,359.5c-1.5,0-2.7-1.2-2.7-2.7V324c0-1.5,1.2-2.7,2.7-2.7c1.5,0,2.7,1.2,2.7,2.7v32.8
				C702.7,358.3,701.5,359.5,700,359.5z"/>
		</g>
		<g>
			<path d="M700,290.8c-1.5,0-2.7-1.2-2.7-2.7v-35.9c0-1.5,1.2-2.7,2.7-2.7c1.5,0,2.7,1.2,2.7,2.7V288
				C702.7,289.6,701.5,290.8,700,290.8z"/>
		</g>
		<g>
			<path d="M700,218.9c-1.5,0-2.7-1.2-2.7-2.7v-32.8c0-1.5,1.2-2.7,2.7-2.7c1.5,0,2.7,1.2,2.7,2.7v32.8
				C702.7,217.7,701.5,218.9,700,218.9z"/>
		</g>
	</g>
	<g>
		<g>
			<path d="M959.1,239c-0.8,0-1.6-0.3-2.1-1c-1-1.2-0.8-2.9,0.3-3.9l25.1-21.1c1.2-1,2.9-0.8,3.9,0.3c1,1.2,0.8,2.9-0.3,3.9
				l-25.1,21.1C960.3,238.8,959.7,239,959.1,239z"/>
		</g>
		<g>
			<path d="M853,328.5c-0.8,0-1.6-0.3-2.1-1c-1-1.2-0.8-2.9,0.3-3.9l53-44.7c1.2-1,2.9-0.8,3.9,0.3c1,1.2,0.8,2.9-0.3,3.9l-53,44.7
				C854.2,328.3,853.6,328.5,853,328.5z"/>
		</g>
		<g>
			<path d="M774.9,394.3c-0.8,0-1.6-0.3-2.1-1c-1-1.2-0.8-2.9,0.3-3.9l25.1-21.1c1.2-1,2.9-0.8,3.9,0.3c1,1.2,0.8,2.9-0.3,3.9
				l-25.1,21.1C776.1,394.1,775.5,394.3,774.9,394.3z"/>
		</g>
	</g>
	<g>
		<g>
			<path d="M440.8,239c-0.6,0-1.2-0.2-1.8-0.6L414,217.2c-1.2-1-1.3-2.7-0.3-3.9c1-1.2,2.7-1.3,3.9-0.3l25.1,21.1
				c1.2,1,1.3,2.7,0.3,3.9C442.4,238.7,441.6,239,440.8,239z"/>
		</g>
		<g>
			<path d="M546.9,328.5c-0.6,0-1.2-0.2-1.8-0.6l-53-44.7c-1.2-1-1.3-2.7-0.3-3.9c1-1.2,2.7-1.3,3.9-0.3l53,44.7
				c1.2,1,1.3,2.7,0.3,3.9C548.5,328.1,547.7,328.5,546.9,328.5z"/>
		</g>
		<g>
			<path d="M625,394.3c-0.6,0-1.2-0.2-1.8-0.6l-25.1-21.1c-1.2-1-1.3-2.7-0.3-3.9c1-1.2,2.7-1.3,3.9-0.3l25.1,21.1
				c1.2,1,1.3,2.7,0.3,3.9C626.6,394,625.8,394.3,625,394.3z"/>
		</g>
	</g>
	<g>
		<polygon fill="#FFFFFF" points="210.6,378.1 338.2,451.7 210.6,525.3 		"/>
	</g>
	<g>
		<path d="M550.4,884.4h-54.9c-1.5,0-2.7-1.2-2.7-2.7c0-1.5,1.2-2.7,2.7-2.7h54.9c1.5,0,2.7,1.2,2.7,2.7
			C553.1,883.2,551.9,884.4,550.4,884.4z"/>
	</g>
	<g>
		<path d="M602,884.4h-27.9c-1.5,0-2.7-1.2-2.7-2.7c0-1.5,1.2-2.7,2.7-2.7H602c1.5,0,2.7,1.2,2.7,2.7
			C604.7,883.2,603.5,884.4,602,884.4z"/>
	</g>
	<g>
		<path d="M307.6,884.4h-35.3c-1.5,0-2.7-1.2-2.7-2.7c0-1.5,1.2-2.7,2.7-2.7h35.3c1.5,0,2.7,1.2,2.7,2.7
			C310.3,883.2,309.1,884.4,307.6,884.4z"/>
	</g>
	<g>
		<path d="M792.8,874.8c-0.4,0-0.7-0.1-1.1-0.2l-138.1-59c-1-0.4-1.7-1.4-1.7-2.5c0-1.1,0.7-2.1,1.7-2.5l138.1-59
			c1-0.4,2.1-0.2,2.9,0.5c0.8,0.7,1.1,1.8,0.8,2.8l-10.8,36.5h75.5c1.5,0,2.7,1.2,2.7,2.7v37.9c0,1.5-1.2,2.7-2.7,2.7h-75.5
			l10.6,35.8c0.3,0.4,0.4,0.9,0.4,1.5C795.6,873.6,794.4,874.8,792.8,874.8C792.8,874.8,792.8,874.8,792.8,874.8z M661.7,813.1
			l126.9,54.2l-10.2-34.4c-0.2-0.8-0.1-1.7,0.4-2.4c0.5-0.7,1.3-1.1,2.2-1.1h76.5v-32.4H781c-0.9,0-1.7-0.4-2.2-1.1
			c-0.5-0.7-0.7-1.6-0.4-2.4l10.2-34.4L661.7,813.1z"/>
	</g>
	<g>
		<g>
			<path d="M596.2,833.9c-0.7,0-1.4-0.3-1.9-0.8c-1.1-1.1-1.1-2.8,0-3.9l36.2-36.2c1.1-1.1,2.8-1.1,3.9,0s1.1,2.8,0,3.9l-36.2,36.2
				C597.6,833.7,596.9,833.9,596.2,833.9z"/>
		</g>
		<g>
			<path d="M632.3,833.9c-0.7,0-1.4-0.3-1.9-0.8L594.2,797c-1.1-1.1-1.1-2.8,0-3.9s2.8-1.1,3.9,0l36.2,36.2c1.1,1.1,1.1,2.8,0,3.9
				C633.7,833.7,633,833.9,632.3,833.9z"/>
		</g>
	</g>
	<g>
		<g>
			<path d="M516.1,160.4c-1.5,0-2.7-1.2-2.7-2.7V85.1c0-1.5,1.2-2.7,2.7-2.7c1.5,0,2.7,1.2,2.7,2.7v72.6
				C518.8,159.1,517.6,160.4,516.1,160.4z"/>
		</g>
		<g>
			<path d="M552.4,124.1h-72.6c-1.5,0-2.7-1.2-2.7-2.7c0-1.5,1.2-2.7,2.7-2.7h72.6c1.5,0,2.7,1.2,2.7,2.7
				C555.1,122.9,553.9,124.1,552.4,124.1z"/>
		</g>
	</g>
	<g>
		<path d="M786.6,853.8c-0.3,0-0.7-0.1-1-0.2l-75.3-30.3c-1.4-0.6-2.1-2.2-1.5-3.6c0.6-1.4,2.2-2.1,3.6-1.5l75.3,30.3
			c1.4,0.6,2.1,2.2,1.5,3.6C788.7,853.2,787.7,853.8,786.6,853.8z"/>
	</g>
	<g>
		<path d="M1037.7,769H928c-1.5,0-2.7-1.2-2.7-2.7s1.2-2.7,2.7-2.7h109.7c1.5,0,2.7,1.2,2.7,2.7S1039.2,769,1037.7,769z"/>
	</g>
	<g>
		<path d="M1128.1,800.2H928c-1.5,0-2.7-1.2-2.7-2.7s1.2-2.7,2.7-2.7h200.2c1.5,0,2.7,1.2,2.7,2.7S1129.7,800.2,1128.1,800.2z"/>
	</g>
	<g>
		<path d="M1128.1,831.5H928c-1.5,0-2.7-1.2-2.7-2.7s1.2-2.7,2.7-2.7h200.2c1.5,0,2.7,1.2,2.7,2.7S1129.7,831.5,1128.1,831.5z"/>
	</g>
	<g>
		<path d="M1128.1,862.7H928c-1.5,0-2.7-1.2-2.7-2.7c0-1.5,1.2-2.7,2.7-2.7h200.2c1.5,0,2.7,1.2,2.7,2.7
			C1130.9,861.5,1129.7,862.7,1128.1,862.7z"/>
	</g>
	<g>
		<path d="M268.7,737.7c-1.5,0-2.7-1.2-2.7-2.7v-69.7h-69.7c-1.5,0-2.7-1.2-2.7-2.7c0-1.5,1.2-2.7,2.7-2.7h72.4
			c1.5,0,2.7,1.2,2.7,2.7V735C271.4,736.5,270.2,737.7,268.7,737.7z"/>
	</g>
	<g>
		<path d="M234.4,772c-1.5,0-2.7-1.2-2.7-2.7v-69.7H162c-1.5,0-2.7-1.2-2.7-2.7c0-1.5,1.2-2.7,2.7-2.7h72.4c1.5,0,2.7,1.2,2.7,2.7
			v72.4C237.2,770.8,235.9,772,234.4,772z"/>
	</g>
	<g>
		<path d="M851.9,203.7c-3-0.7-4.8-3.6-4.2-6.6l0,0c0.7-3,3.6-4.8,6.6-4.1l0,0c2.9,0.7,4.8,3.6,4.1,6.5l0,0
			c-0.5,2.6-2.8,4.3-5.3,4.3l0,0C852.7,203.8,852.3,203.8,851.9,203.7z M887.6,192.9c-1.9-2.3-1.5-5.8,0.9-7.7l0,0
			c2.4-1.9,5.8-1.5,7.7,0.9l0,0c1.9,2.4,1.5,5.8-0.9,7.7l0,0l0,0l0,0c-1,0.8-2.2,1.2-3.4,1.2l0,0
			C890.3,194.9,888.7,194.2,887.6,192.9z M817,176c-1.3-2.7-0.2-6,2.5-7.3l0,0c2.7-1.4,6-0.2,7.3,2.5l0,0c1.3,2.7,0.2,6-2.5,7.3l0,0
			c-0.8,0.4-1.6,0.5-2.4,0.5l0,0C819.9,179.1,817.9,178,817,176z M903.7,153.6c0-0.1,0-0.1,0-0.1l0,0c0-0.1,0-0.1,0-0.1l0,0
			c0-3.1,2.4-5.5,5.5-5.5l0,0c3,0,5.4,2.4,5.5,5.4l0,0c0,0.1,0,0.2,0,0.3l0,0c0,3-2.5,5.5-5.5,5.5l0,0
			C906.1,159.1,903.7,156.6,903.7,153.6z M819.4,138.7c-2.7-1.3-3.9-4.5-2.6-7.3l0,0c1.3-2.7,4.5-3.9,7.3-2.6l0,0
			c2.7,1.3,3.9,4.5,2.6,7.3l0,0c-0.9,2-2.9,3.1-4.9,3.1l0,0C821,139.3,820.2,139.1,819.4,138.7z M888.3,121.8
			c-2.4-1.9-2.8-5.3-0.9-7.7l0,0c1.9-2.4,5.3-2.8,7.7-0.9l0,0c2.4,1.9,2.7,5.3,0.9,7.7l0,0c-1.1,1.4-2.7,2.1-4.3,2.1l0,0
			C890.5,123,889.3,122.6,888.3,121.8z M847.5,110.1c-0.7-3,1.1-5.8,4.1-6.6l0,0c3-0.7,5.9,1.1,6.6,4.1l0,0c0.7,2.9-1.1,5.9-4.1,6.6
			l0,0c-0.4,0.1-0.8,0.2-1.2,0.2l0,0C850.3,114.4,848.1,112.6,847.5,110.1z"/>
	</g>
	<g>
		<g>
			<path fill="#61B3FF" d="M1182.7,682.2h-3.8c-3.3-15.6-17.1-27.4-33.8-27.4c-19,0-34.5,15.4-34.5,34.5c0,5.2,1.2,10.1,3.3,14.6
				c-9.6,1.6-16.9,9.9-16.9,19.9c0,11.2,9.1,20.3,20.3,20.3h22.9h13.3h29.2c17.1,0,31-13.9,31-31
				C1213.7,696.1,1199.8,682.2,1182.7,682.2z"/>
		</g>
		<g>
			<path d="M1229.4,715.7c-1.5,0-2.7-1.2-2.7-2.7c0-23.4-19-42.4-42.4-42.4c-1.5,0-2.7-1.2-2.7-2.7c0-1.5,1.2-2.7,2.7-2.7
				c26.4,0,47.8,21.5,47.8,47.8C1232.2,714.5,1230.9,715.7,1229.4,715.7z"/>
		</g>
	</g>
	<g>
		<path d="M595.2,166.9h-38.1c-1.5,0-2.7-1.2-2.7-2.7c0-1.5,1.2-2.7,2.7-2.7h38.1c1.5,0,2.7,1.2,2.7,2.7
			C597.9,165.6,596.7,166.9,595.2,166.9z"/>
	</g>
	<g>
		<path d="M262.5,211.6h-43.9c-1.5,0-2.7-1.2-2.7-2.7c0-1.5,1.2-2.7,2.7-2.7h43.9c1.5,0,2.7,1.2,2.7,2.7
			C265.3,210.3,264,211.6,262.5,211.6z"/>
	</g>
	<g>
		<path d="M219.1,262.9H181c-1.5,0-2.7-1.2-2.7-2.7c0-1.5,1.2-2.7,2.7-2.7h38.1c1.5,0,2.7,1.2,2.7,2.7
			C221.8,261.7,220.6,262.9,219.1,262.9z"/>
	</g>
	<g>
		<path d="M322.6,262.9h-78.8c-1.5,0-2.7-1.2-2.7-2.7c0-1.5,1.2-2.7,2.7-2.7h78.8c1.5,0,2.7,1.2,2.7,2.7
			C325.4,261.7,324.2,262.9,322.6,262.9z"/>
	</g>
</g>
</svg>
